<mxfile host="app.diagrams.net" agent="Mozilla/5.0 (Macintosh; Intel Mac OS X 10_15_7) AppleWebKit/605.1.15 (KHTML, like Gecko) Version/18.1 Safari/605.1.15" version="26.2.14">
  <diagram name="Page-1" id="mSdoSHMmGEVfb8vdNhQg">
    <mxGraphModel dx="946" dy="564" grid="1" gridSize="10" guides="1" tooltips="1" connect="1" arrows="1" fold="1" page="1" pageScale="1" pageWidth="3300" pageHeight="4681" math="0" shadow="0">
      <root>
        <mxCell id="0" />
        <mxCell id="1" parent="0" />
        <mxCell id="TnD2usCHC5H45rRuhwk7-1" value="" style="shape=table;startSize=0;container=1;collapsible=0;childLayout=tableLayout;" parent="1" vertex="1">
          <mxGeometry x="50" y="80" width="120" height="251" as="geometry" />
        </mxCell>
        <mxCell id="TnD2usCHC5H45rRuhwk7-2" value="" style="shape=tableRow;horizontal=0;startSize=0;swimlaneHead=0;swimlaneBody=0;strokeColor=inherit;top=0;left=0;bottom=0;right=0;collapsible=0;dropTarget=0;fillColor=#99FFFF;points=[[0,0.5],[1,0.5]];portConstraint=eastwest;" parent="TnD2usCHC5H45rRuhwk7-1" vertex="1">
          <mxGeometry width="120" height="29" as="geometry" />
        </mxCell>
        <mxCell id="TnD2usCHC5H45rRuhwk7-3" value="&lt;b style=&quot;color: rgb(153, 0, 0);&quot;&gt;PRODUCTS&lt;/b&gt;" style="shape=partialRectangle;html=1;whiteSpace=wrap;connectable=0;strokeColor=inherit;overflow=hidden;fillColor=none;top=0;left=0;bottom=0;right=0;pointerEvents=1;" parent="TnD2usCHC5H45rRuhwk7-2" vertex="1">
          <mxGeometry width="120" height="29" as="geometry">
            <mxRectangle width="120" height="29" as="alternateBounds" />
          </mxGeometry>
        </mxCell>
        <mxCell id="TnD2usCHC5H45rRuhwk7-4" value="" style="shape=tableRow;horizontal=0;startSize=0;swimlaneHead=0;swimlaneBody=0;strokeColor=inherit;top=0;left=0;bottom=0;right=0;collapsible=0;dropTarget=0;fillColor=none;points=[[0,0.5],[1,0.5]];portConstraint=eastwest;" parent="TnD2usCHC5H45rRuhwk7-1" vertex="1">
          <mxGeometry y="29" width="120" height="29" as="geometry" />
        </mxCell>
        <mxCell id="TnD2usCHC5H45rRuhwk7-5" value="ID (Integer)" style="shape=partialRectangle;html=1;whiteSpace=wrap;connectable=0;strokeColor=inherit;overflow=hidden;fillColor=none;top=0;left=0;bottom=0;right=0;pointerEvents=1;align=left;" parent="TnD2usCHC5H45rRuhwk7-4" vertex="1">
          <mxGeometry width="120" height="29" as="geometry">
            <mxRectangle width="120" height="29" as="alternateBounds" />
          </mxGeometry>
        </mxCell>
        <mxCell id="TnD2usCHC5H45rRuhwk7-6" value="" style="shape=tableRow;horizontal=0;startSize=0;swimlaneHead=0;swimlaneBody=0;strokeColor=inherit;top=0;left=0;bottom=0;right=0;collapsible=0;dropTarget=0;fillColor=none;points=[[0,0.5],[1,0.5]];portConstraint=eastwest;" parent="TnD2usCHC5H45rRuhwk7-1" vertex="1">
          <mxGeometry y="58" width="120" height="29" as="geometry" />
        </mxCell>
        <mxCell id="TnD2usCHC5H45rRuhwk7-7" value="Name (String)" style="shape=partialRectangle;html=1;whiteSpace=wrap;connectable=0;strokeColor=inherit;overflow=hidden;fillColor=none;top=0;left=0;bottom=0;right=0;pointerEvents=1;align=left;" parent="TnD2usCHC5H45rRuhwk7-6" vertex="1">
          <mxGeometry width="120" height="29" as="geometry">
            <mxRectangle width="120" height="29" as="alternateBounds" />
          </mxGeometry>
        </mxCell>
        <mxCell id="TnD2usCHC5H45rRuhwk7-8" value="" style="shape=tableRow;horizontal=0;startSize=0;swimlaneHead=0;swimlaneBody=0;strokeColor=inherit;top=0;left=0;bottom=0;right=0;collapsible=0;dropTarget=0;fillColor=none;points=[[0,0.5],[1,0.5]];portConstraint=eastwest;" parent="TnD2usCHC5H45rRuhwk7-1" vertex="1">
          <mxGeometry y="87" width="120" height="28" as="geometry" />
        </mxCell>
        <mxCell id="TnD2usCHC5H45rRuhwk7-9" value="Description (Text)" style="shape=partialRectangle;html=1;whiteSpace=wrap;connectable=0;strokeColor=inherit;overflow=hidden;fillColor=none;top=0;left=0;bottom=0;right=0;pointerEvents=1;align=left;" parent="TnD2usCHC5H45rRuhwk7-8" vertex="1">
          <mxGeometry width="120" height="28" as="geometry">
            <mxRectangle width="120" height="28" as="alternateBounds" />
          </mxGeometry>
        </mxCell>
        <mxCell id="TnD2usCHC5H45rRuhwk7-10" value="" style="shape=tableRow;horizontal=0;startSize=0;swimlaneHead=0;swimlaneBody=0;strokeColor=inherit;top=0;left=0;bottom=0;right=0;collapsible=0;dropTarget=0;fillColor=none;points=[[0,0.5],[1,0.5]];portConstraint=eastwest;" parent="TnD2usCHC5H45rRuhwk7-1" vertex="1">
          <mxGeometry y="115" width="120" height="30" as="geometry" />
        </mxCell>
        <mxCell id="TnD2usCHC5H45rRuhwk7-11" value="Category (String)" style="shape=partialRectangle;html=1;whiteSpace=wrap;connectable=0;strokeColor=inherit;overflow=hidden;fillColor=none;top=0;left=0;bottom=0;right=0;pointerEvents=1;align=left;" parent="TnD2usCHC5H45rRuhwk7-10" vertex="1">
          <mxGeometry width="120" height="30" as="geometry">
            <mxRectangle width="120" height="30" as="alternateBounds" />
          </mxGeometry>
        </mxCell>
        <mxCell id="TnD2usCHC5H45rRuhwk7-12" value="" style="shape=tableRow;horizontal=0;startSize=0;swimlaneHead=0;swimlaneBody=0;strokeColor=inherit;top=0;left=0;bottom=0;right=0;collapsible=0;dropTarget=0;fillColor=none;points=[[0,0.5],[1,0.5]];portConstraint=eastwest;" parent="TnD2usCHC5H45rRuhwk7-1" vertex="1">
          <mxGeometry y="145" width="120" height="28" as="geometry" />
        </mxCell>
        <mxCell id="TnD2usCHC5H45rRuhwk7-13" value="Price (Decimal)" style="shape=partialRectangle;html=1;whiteSpace=wrap;connectable=0;strokeColor=inherit;overflow=hidden;fillColor=none;top=0;left=0;bottom=0;right=0;pointerEvents=1;align=left;" parent="TnD2usCHC5H45rRuhwk7-12" vertex="1">
          <mxGeometry width="120" height="28" as="geometry">
            <mxRectangle width="120" height="28" as="alternateBounds" />
          </mxGeometry>
        </mxCell>
        <mxCell id="TnD2usCHC5H45rRuhwk7-14" value="" style="shape=tableRow;horizontal=0;startSize=0;swimlaneHead=0;swimlaneBody=0;strokeColor=inherit;top=0;left=0;bottom=0;right=0;collapsible=0;dropTarget=0;fillColor=none;points=[[0,0.5],[1,0.5]];portConstraint=eastwest;" parent="TnD2usCHC5H45rRuhwk7-1" vertex="1">
          <mxGeometry y="173" width="120" height="29" as="geometry" />
        </mxCell>
        <mxCell id="TnD2usCHC5H45rRuhwk7-15" value="Gender (Enum)" style="shape=partialRectangle;html=1;whiteSpace=wrap;connectable=0;strokeColor=inherit;overflow=hidden;fillColor=none;top=0;left=0;bottom=0;right=0;pointerEvents=1;align=left;" parent="TnD2usCHC5H45rRuhwk7-14" vertex="1">
          <mxGeometry width="120" height="29" as="geometry">
            <mxRectangle width="120" height="29" as="alternateBounds" />
          </mxGeometry>
        </mxCell>
        <mxCell id="TnD2usCHC5H45rRuhwk7-16" value="" style="shape=tableRow;horizontal=0;startSize=0;swimlaneHead=0;swimlaneBody=0;strokeColor=inherit;top=0;left=0;bottom=0;right=0;collapsible=0;dropTarget=0;fillColor=none;points=[[0,0.5],[1,0.5]];portConstraint=eastwest;" parent="TnD2usCHC5H45rRuhwk7-1" vertex="1">
          <mxGeometry y="202" width="120" height="29" as="geometry" />
        </mxCell>
        <mxCell id="TnD2usCHC5H45rRuhwk7-17" value="Status (Enum)" style="shape=partialRectangle;html=1;whiteSpace=wrap;connectable=0;strokeColor=inherit;overflow=hidden;fillColor=none;top=0;left=0;bottom=0;right=0;pointerEvents=1;align=left;" parent="TnD2usCHC5H45rRuhwk7-16" vertex="1">
          <mxGeometry width="120" height="29" as="geometry">
            <mxRectangle width="120" height="29" as="alternateBounds" />
          </mxGeometry>
        </mxCell>
        <mxCell id="TnD2usCHC5H45rRuhwk7-18" value="" style="shape=tableRow;horizontal=0;startSize=0;swimlaneHead=0;swimlaneBody=0;strokeColor=inherit;top=0;left=0;bottom=0;right=0;collapsible=0;dropTarget=0;fillColor=none;points=[[0,0.5],[1,0.5]];portConstraint=eastwest;" parent="TnD2usCHC5H45rRuhwk7-1" vertex="1">
          <mxGeometry y="231" width="120" height="20" as="geometry" />
        </mxCell>
        <mxCell id="TnD2usCHC5H45rRuhwk7-19" value="" style="shape=partialRectangle;html=1;whiteSpace=wrap;connectable=0;strokeColor=inherit;overflow=hidden;fillColor=none;top=0;left=0;bottom=0;right=0;pointerEvents=1;" parent="TnD2usCHC5H45rRuhwk7-18" vertex="1">
          <mxGeometry width="120" height="20" as="geometry">
            <mxRectangle width="120" height="20" as="alternateBounds" />
          </mxGeometry>
        </mxCell>
        <mxCell id="lrAjuptVuyixeFRpdPks-1" value="" style="shape=table;startSize=0;container=1;collapsible=0;childLayout=tableLayout;" parent="1" vertex="1">
          <mxGeometry x="310" y="80" width="120" height="251" as="geometry" />
        </mxCell>
        <mxCell id="lrAjuptVuyixeFRpdPks-2" value="" style="shape=tableRow;horizontal=0;startSize=0;swimlaneHead=0;swimlaneBody=0;strokeColor=inherit;top=0;left=0;bottom=0;right=0;collapsible=0;dropTarget=0;fillColor=none;points=[[0,0.5],[1,0.5]];portConstraint=eastwest;" parent="lrAjuptVuyixeFRpdPks-1" vertex="1">
          <mxGeometry width="120" height="29" as="geometry" />
        </mxCell>
        <mxCell id="lrAjuptVuyixeFRpdPks-3" value="&lt;b style=&quot;color: rgb(153, 0, 0);&quot;&gt;&lt;font style=&quot;font-size: 14px;&quot;&gt;Variants&lt;/font&gt;&lt;/b&gt;" style="shape=partialRectangle;html=1;whiteSpace=wrap;connectable=0;strokeColor=inherit;overflow=hidden;fillColor=#99FFFF;top=0;left=0;bottom=0;right=0;pointerEvents=1;" parent="lrAjuptVuyixeFRpdPks-2" vertex="1">
          <mxGeometry width="120" height="29" as="geometry">
            <mxRectangle width="120" height="29" as="alternateBounds" />
          </mxGeometry>
        </mxCell>
        <mxCell id="lrAjuptVuyixeFRpdPks-4" value="" style="shape=tableRow;horizontal=0;startSize=0;swimlaneHead=0;swimlaneBody=0;strokeColor=inherit;top=0;left=0;bottom=0;right=0;collapsible=0;dropTarget=0;fillColor=none;points=[[0,0.5],[1,0.5]];portConstraint=eastwest;" parent="lrAjuptVuyixeFRpdPks-1" vertex="1">
          <mxGeometry y="29" width="120" height="29" as="geometry" />
        </mxCell>
        <mxCell id="lrAjuptVuyixeFRpdPks-5" value="ID (Integer)" style="shape=partialRectangle;html=1;whiteSpace=wrap;connectable=0;strokeColor=inherit;overflow=hidden;fillColor=none;top=0;left=0;bottom=0;right=0;pointerEvents=1;align=left;" parent="lrAjuptVuyixeFRpdPks-4" vertex="1">
          <mxGeometry width="120" height="29" as="geometry">
            <mxRectangle width="120" height="29" as="alternateBounds" />
          </mxGeometry>
        </mxCell>
        <mxCell id="lrAjuptVuyixeFRpdPks-6" value="" style="shape=tableRow;horizontal=0;startSize=0;swimlaneHead=0;swimlaneBody=0;strokeColor=inherit;top=0;left=0;bottom=0;right=0;collapsible=0;dropTarget=0;fillColor=none;points=[[0,0.5],[1,0.5]];portConstraint=eastwest;" parent="lrAjuptVuyixeFRpdPks-1" vertex="1">
          <mxGeometry y="58" width="120" height="29" as="geometry" />
        </mxCell>
        <mxCell id="lrAjuptVuyixeFRpdPks-7" value="Product_ID (Integer)" style="shape=partialRectangle;html=1;whiteSpace=wrap;connectable=0;strokeColor=inherit;overflow=hidden;fillColor=none;top=0;left=0;bottom=0;right=0;pointerEvents=1;align=left;" parent="lrAjuptVuyixeFRpdPks-6" vertex="1">
          <mxGeometry width="120" height="29" as="geometry">
            <mxRectangle width="120" height="29" as="alternateBounds" />
          </mxGeometry>
        </mxCell>
        <mxCell id="lrAjuptVuyixeFRpdPks-8" value="" style="shape=tableRow;horizontal=0;startSize=0;swimlaneHead=0;swimlaneBody=0;strokeColor=inherit;top=0;left=0;bottom=0;right=0;collapsible=0;dropTarget=0;fillColor=none;points=[[0,0.5],[1,0.5]];portConstraint=eastwest;" parent="lrAjuptVuyixeFRpdPks-1" vertex="1">
          <mxGeometry y="87" width="120" height="28" as="geometry" />
        </mxCell>
        <mxCell id="lrAjuptVuyixeFRpdPks-9" value="Material (Text)" style="shape=partialRectangle;html=1;whiteSpace=wrap;connectable=0;strokeColor=inherit;overflow=hidden;fillColor=none;top=0;left=0;bottom=0;right=0;pointerEvents=1;align=left;" parent="lrAjuptVuyixeFRpdPks-8" vertex="1">
          <mxGeometry width="120" height="28" as="geometry">
            <mxRectangle width="120" height="28" as="alternateBounds" />
          </mxGeometry>
        </mxCell>
        <mxCell id="lrAjuptVuyixeFRpdPks-10" value="" style="shape=tableRow;horizontal=0;startSize=0;swimlaneHead=0;swimlaneBody=0;strokeColor=inherit;top=0;left=0;bottom=0;right=0;collapsible=0;dropTarget=0;fillColor=none;points=[[0,0.5],[1,0.5]];portConstraint=eastwest;" parent="lrAjuptVuyixeFRpdPks-1" vertex="1">
          <mxGeometry y="115" width="120" height="30" as="geometry" />
        </mxCell>
        <mxCell id="lrAjuptVuyixeFRpdPks-11" value="Color (String)" style="shape=partialRectangle;html=1;whiteSpace=wrap;connectable=0;strokeColor=inherit;overflow=hidden;fillColor=none;top=0;left=0;bottom=0;right=0;pointerEvents=1;align=left;" parent="lrAjuptVuyixeFRpdPks-10" vertex="1">
          <mxGeometry width="120" height="30" as="geometry">
            <mxRectangle width="120" height="30" as="alternateBounds" />
          </mxGeometry>
        </mxCell>
        <mxCell id="lrAjuptVuyixeFRpdPks-12" value="" style="shape=tableRow;horizontal=0;startSize=0;swimlaneHead=0;swimlaneBody=0;strokeColor=inherit;top=0;left=0;bottom=0;right=0;collapsible=0;dropTarget=0;fillColor=none;points=[[0,0.5],[1,0.5]];portConstraint=eastwest;" parent="lrAjuptVuyixeFRpdPks-1" vertex="1">
          <mxGeometry y="145" width="120" height="28" as="geometry" />
        </mxCell>
        <mxCell id="lrAjuptVuyixeFRpdPks-13" value="Size (String)" style="shape=partialRectangle;html=1;whiteSpace=wrap;connectable=0;strokeColor=inherit;overflow=hidden;fillColor=none;top=0;left=0;bottom=0;right=0;pointerEvents=1;align=left;" parent="lrAjuptVuyixeFRpdPks-12" vertex="1">
          <mxGeometry width="120" height="28" as="geometry">
            <mxRectangle width="120" height="28" as="alternateBounds" />
          </mxGeometry>
        </mxCell>
        <mxCell id="lrAjuptVuyixeFRpdPks-14" value="" style="shape=tableRow;horizontal=0;startSize=0;swimlaneHead=0;swimlaneBody=0;strokeColor=inherit;top=0;left=0;bottom=0;right=0;collapsible=0;dropTarget=0;fillColor=none;points=[[0,0.5],[1,0.5]];portConstraint=eastwest;" parent="lrAjuptVuyixeFRpdPks-1" vertex="1">
          <mxGeometry y="173" width="120" height="29" as="geometry" />
        </mxCell>
        <mxCell id="lrAjuptVuyixeFRpdPks-15" value="Price (Decimal)" style="shape=partialRectangle;html=1;whiteSpace=wrap;connectable=0;strokeColor=inherit;overflow=hidden;fillColor=none;top=0;left=0;bottom=0;right=0;pointerEvents=1;align=left;" parent="lrAjuptVuyixeFRpdPks-14" vertex="1">
          <mxGeometry width="120" height="29" as="geometry">
            <mxRectangle width="120" height="29" as="alternateBounds" />
          </mxGeometry>
        </mxCell>
        <mxCell id="lrAjuptVuyixeFRpdPks-16" value="" style="shape=tableRow;horizontal=0;startSize=0;swimlaneHead=0;swimlaneBody=0;strokeColor=inherit;top=0;left=0;bottom=0;right=0;collapsible=0;dropTarget=0;fillColor=none;points=[[0,0.5],[1,0.5]];portConstraint=eastwest;" parent="lrAjuptVuyixeFRpdPks-1" vertex="1">
          <mxGeometry y="202" width="120" height="29" as="geometry" />
        </mxCell>
        <mxCell id="lrAjuptVuyixeFRpdPks-17" value="Stock (Integer)" style="shape=partialRectangle;html=1;whiteSpace=wrap;connectable=0;strokeColor=inherit;overflow=hidden;fillColor=none;top=0;left=0;bottom=0;right=0;pointerEvents=1;align=left;" parent="lrAjuptVuyixeFRpdPks-16" vertex="1">
          <mxGeometry width="120" height="29" as="geometry">
            <mxRectangle width="120" height="29" as="alternateBounds" />
          </mxGeometry>
        </mxCell>
        <mxCell id="lrAjuptVuyixeFRpdPks-18" value="" style="shape=tableRow;horizontal=0;startSize=0;swimlaneHead=0;swimlaneBody=0;strokeColor=inherit;top=0;left=0;bottom=0;right=0;collapsible=0;dropTarget=0;fillColor=none;points=[[0,0.5],[1,0.5]];portConstraint=eastwest;" parent="lrAjuptVuyixeFRpdPks-1" vertex="1">
          <mxGeometry y="231" width="120" height="20" as="geometry" />
        </mxCell>
        <mxCell id="lrAjuptVuyixeFRpdPks-19" value="Image" style="shape=partialRectangle;html=1;whiteSpace=wrap;connectable=0;strokeColor=inherit;overflow=hidden;fillColor=none;top=0;left=0;bottom=0;right=0;pointerEvents=1;align=left;" parent="lrAjuptVuyixeFRpdPks-18" vertex="1">
          <mxGeometry width="120" height="20" as="geometry">
            <mxRectangle width="120" height="20" as="alternateBounds" />
          </mxGeometry>
        </mxCell>
        <mxCell id="lrAjuptVuyixeFRpdPks-20" value="" style="shape=table;startSize=0;container=1;collapsible=0;childLayout=tableLayout;" parent="1" vertex="1">
          <mxGeometry x="420" y="420" width="130" height="130" as="geometry" />
        </mxCell>
        <mxCell id="lrAjuptVuyixeFRpdPks-21" value="" style="shape=tableRow;horizontal=0;startSize=0;swimlaneHead=0;swimlaneBody=0;strokeColor=inherit;top=0;left=0;bottom=0;right=0;collapsible=0;dropTarget=0;fillColor=none;points=[[0,0.5],[1,0.5]];portConstraint=eastwest;" parent="lrAjuptVuyixeFRpdPks-20" vertex="1">
          <mxGeometry width="130" height="26" as="geometry" />
        </mxCell>
        <mxCell id="lrAjuptVuyixeFRpdPks-22" value="&lt;b style=&quot;color: rgb(153, 0, 0);&quot;&gt;&lt;font style=&quot;font-size: 14px;&quot;&gt;Categories&lt;/font&gt;&lt;/b&gt;" style="shape=partialRectangle;html=1;whiteSpace=wrap;connectable=0;strokeColor=inherit;overflow=hidden;fillColor=#99FFFF;top=0;left=0;bottom=0;right=0;pointerEvents=1;" parent="lrAjuptVuyixeFRpdPks-21" vertex="1">
          <mxGeometry width="130" height="26" as="geometry">
            <mxRectangle width="130" height="26" as="alternateBounds" />
          </mxGeometry>
        </mxCell>
        <mxCell id="lrAjuptVuyixeFRpdPks-23" value="" style="shape=tableRow;horizontal=0;startSize=0;swimlaneHead=0;swimlaneBody=0;strokeColor=inherit;top=0;left=0;bottom=0;right=0;collapsible=0;dropTarget=0;fillColor=none;points=[[0,0.5],[1,0.5]];portConstraint=eastwest;" parent="lrAjuptVuyixeFRpdPks-20" vertex="1">
          <mxGeometry y="26" width="130" height="26" as="geometry" />
        </mxCell>
        <mxCell id="lrAjuptVuyixeFRpdPks-24" value="ID (Integer)" style="shape=partialRectangle;html=1;whiteSpace=wrap;connectable=0;strokeColor=inherit;overflow=hidden;fillColor=none;top=0;left=0;bottom=0;right=0;pointerEvents=1;align=left;" parent="lrAjuptVuyixeFRpdPks-23" vertex="1">
          <mxGeometry width="130" height="26" as="geometry">
            <mxRectangle width="130" height="26" as="alternateBounds" />
          </mxGeometry>
        </mxCell>
        <mxCell id="lrAjuptVuyixeFRpdPks-25" value="" style="shape=tableRow;horizontal=0;startSize=0;swimlaneHead=0;swimlaneBody=0;strokeColor=inherit;top=0;left=0;bottom=0;right=0;collapsible=0;dropTarget=0;fillColor=none;points=[[0,0.5],[1,0.5]];portConstraint=eastwest;" parent="lrAjuptVuyixeFRpdPks-20" vertex="1">
          <mxGeometry y="52" width="130" height="26" as="geometry" />
        </mxCell>
        <mxCell id="lrAjuptVuyixeFRpdPks-26" value="Name (String)" style="shape=partialRectangle;html=1;whiteSpace=wrap;connectable=0;strokeColor=inherit;overflow=hidden;fillColor=none;top=0;left=0;bottom=0;right=0;pointerEvents=1;align=left;" parent="lrAjuptVuyixeFRpdPks-25" vertex="1">
          <mxGeometry width="130" height="26" as="geometry">
            <mxRectangle width="130" height="26" as="alternateBounds" />
          </mxGeometry>
        </mxCell>
        <mxCell id="lrAjuptVuyixeFRpdPks-27" value="" style="shape=tableRow;horizontal=0;startSize=0;swimlaneHead=0;swimlaneBody=0;strokeColor=inherit;top=0;left=0;bottom=0;right=0;collapsible=0;dropTarget=0;fillColor=none;points=[[0,0.5],[1,0.5]];portConstraint=eastwest;" parent="lrAjuptVuyixeFRpdPks-20" vertex="1">
          <mxGeometry y="78" width="130" height="26" as="geometry" />
        </mxCell>
        <mxCell id="lrAjuptVuyixeFRpdPks-28" value="Parent_ID (Integer)" style="shape=partialRectangle;html=1;whiteSpace=wrap;connectable=0;strokeColor=inherit;overflow=hidden;fillColor=none;top=0;left=0;bottom=0;right=0;pointerEvents=1;align=left;" parent="lrAjuptVuyixeFRpdPks-27" vertex="1">
          <mxGeometry width="130" height="26" as="geometry">
            <mxRectangle width="130" height="26" as="alternateBounds" />
          </mxGeometry>
        </mxCell>
        <mxCell id="lrAjuptVuyixeFRpdPks-29" value="" style="shape=tableRow;horizontal=0;startSize=0;swimlaneHead=0;swimlaneBody=0;strokeColor=inherit;top=0;left=0;bottom=0;right=0;collapsible=0;dropTarget=0;fillColor=none;points=[[0,0.5],[1,0.5]];portConstraint=eastwest;" parent="lrAjuptVuyixeFRpdPks-20" vertex="1">
          <mxGeometry y="104" width="130" height="26" as="geometry" />
        </mxCell>
        <mxCell id="lrAjuptVuyixeFRpdPks-30" value="Slug (String)" style="shape=partialRectangle;html=1;whiteSpace=wrap;connectable=0;strokeColor=inherit;overflow=hidden;fillColor=none;top=0;left=0;bottom=0;right=0;pointerEvents=1;align=left;" parent="lrAjuptVuyixeFRpdPks-29" vertex="1">
          <mxGeometry width="130" height="26" as="geometry">
            <mxRectangle width="130" height="26" as="alternateBounds" />
          </mxGeometry>
        </mxCell>
        <mxCell id="lrAjuptVuyixeFRpdPks-31" value="" style="shape=table;startSize=0;container=1;collapsible=0;childLayout=tableLayout;" parent="1" vertex="1">
          <mxGeometry x="520" y="88.5" width="190" height="209" as="geometry" />
        </mxCell>
        <mxCell id="lrAjuptVuyixeFRpdPks-32" value="" style="shape=tableRow;horizontal=0;startSize=0;swimlaneHead=0;swimlaneBody=0;strokeColor=inherit;top=0;left=0;bottom=0;right=0;collapsible=0;dropTarget=0;fillColor=none;points=[[0,0.5],[1,0.5]];portConstraint=eastwest;" parent="lrAjuptVuyixeFRpdPks-31" vertex="1">
          <mxGeometry width="190" height="29" as="geometry" />
        </mxCell>
        <mxCell id="lrAjuptVuyixeFRpdPks-33" value="&lt;b style=&quot;color: rgb(153, 0, 0);&quot;&gt;&lt;font style=&quot;font-size: 14px;&quot;&gt;Users&lt;/font&gt;&lt;/b&gt;" style="shape=partialRectangle;html=1;whiteSpace=wrap;connectable=0;strokeColor=inherit;overflow=hidden;fillColor=#99FFFF;top=0;left=0;bottom=0;right=0;pointerEvents=1;" parent="lrAjuptVuyixeFRpdPks-32" vertex="1">
          <mxGeometry width="190" height="29" as="geometry">
            <mxRectangle width="190" height="29" as="alternateBounds" />
          </mxGeometry>
        </mxCell>
        <mxCell id="lrAjuptVuyixeFRpdPks-34" value="" style="shape=tableRow;horizontal=0;startSize=0;swimlaneHead=0;swimlaneBody=0;strokeColor=inherit;top=0;left=0;bottom=0;right=0;collapsible=0;dropTarget=0;fillColor=none;points=[[0,0.5],[1,0.5]];portConstraint=eastwest;" parent="lrAjuptVuyixeFRpdPks-31" vertex="1">
          <mxGeometry y="29" width="190" height="30" as="geometry" />
        </mxCell>
        <mxCell id="lrAjuptVuyixeFRpdPks-35" value="ID &amp;nbsp;(integer)" style="shape=partialRectangle;html=1;whiteSpace=wrap;connectable=0;strokeColor=inherit;overflow=hidden;fillColor=none;top=0;left=0;bottom=0;right=0;pointerEvents=1;align=left;" parent="lrAjuptVuyixeFRpdPks-34" vertex="1">
          <mxGeometry width="190" height="30" as="geometry">
            <mxRectangle width="190" height="30" as="alternateBounds" />
          </mxGeometry>
        </mxCell>
        <mxCell id="lrAjuptVuyixeFRpdPks-36" value="" style="shape=tableRow;horizontal=0;startSize=0;swimlaneHead=0;swimlaneBody=0;strokeColor=inherit;top=0;left=0;bottom=0;right=0;collapsible=0;dropTarget=0;fillColor=none;points=[[0,0.5],[1,0.5]];portConstraint=eastwest;" parent="lrAjuptVuyixeFRpdPks-31" vertex="1">
          <mxGeometry y="59" width="190" height="30" as="geometry" />
        </mxCell>
        <mxCell id="lrAjuptVuyixeFRpdPks-37" value="Email (String)" style="shape=partialRectangle;html=1;whiteSpace=wrap;connectable=0;strokeColor=inherit;overflow=hidden;fillColor=none;top=0;left=0;bottom=0;right=0;pointerEvents=1;align=left;" parent="lrAjuptVuyixeFRpdPks-36" vertex="1">
          <mxGeometry width="190" height="30" as="geometry">
            <mxRectangle width="190" height="30" as="alternateBounds" />
          </mxGeometry>
        </mxCell>
        <mxCell id="lrAjuptVuyixeFRpdPks-38" value="" style="shape=tableRow;horizontal=0;startSize=0;swimlaneHead=0;swimlaneBody=0;strokeColor=inherit;top=0;left=0;bottom=0;right=0;collapsible=0;dropTarget=0;fillColor=none;points=[[0,0.5],[1,0.5]];portConstraint=eastwest;" parent="lrAjuptVuyixeFRpdPks-31" vertex="1">
          <mxGeometry y="89" width="190" height="30" as="geometry" />
        </mxCell>
        <mxCell id="lrAjuptVuyixeFRpdPks-39" value="Encrypted_password (String)" style="shape=partialRectangle;html=1;whiteSpace=wrap;connectable=0;strokeColor=inherit;overflow=hidden;fillColor=none;top=0;left=0;bottom=0;right=0;pointerEvents=1;align=left;" parent="lrAjuptVuyixeFRpdPks-38" vertex="1">
          <mxGeometry width="190" height="30" as="geometry">
            <mxRectangle width="190" height="30" as="alternateBounds" />
          </mxGeometry>
        </mxCell>
        <mxCell id="lrAjuptVuyixeFRpdPks-40" value="" style="shape=tableRow;horizontal=0;startSize=0;swimlaneHead=0;swimlaneBody=0;strokeColor=inherit;top=0;left=0;bottom=0;right=0;collapsible=0;dropTarget=0;fillColor=none;points=[[0,0.5],[1,0.5]];portConstraint=eastwest;" parent="lrAjuptVuyixeFRpdPks-31" vertex="1">
          <mxGeometry y="119" width="190" height="30" as="geometry" />
        </mxCell>
        <mxCell id="lrAjuptVuyixeFRpdPks-41" value="First_name &amp;nbsp;(String)" style="shape=partialRectangle;html=1;whiteSpace=wrap;connectable=0;strokeColor=inherit;overflow=hidden;fillColor=none;top=0;left=0;bottom=0;right=0;pointerEvents=1;align=left;" parent="lrAjuptVuyixeFRpdPks-40" vertex="1">
          <mxGeometry width="190" height="30" as="geometry">
            <mxRectangle width="190" height="30" as="alternateBounds" />
          </mxGeometry>
        </mxCell>
        <mxCell id="lrAjuptVuyixeFRpdPks-42" value="" style="shape=tableRow;horizontal=0;startSize=0;swimlaneHead=0;swimlaneBody=0;strokeColor=inherit;top=0;left=0;bottom=0;right=0;collapsible=0;dropTarget=0;fillColor=none;points=[[0,0.5],[1,0.5]];portConstraint=eastwest;" parent="lrAjuptVuyixeFRpdPks-31" vertex="1">
          <mxGeometry y="149" width="190" height="30" as="geometry" />
        </mxCell>
        <mxCell id="lrAjuptVuyixeFRpdPks-43" value="Last_name (String)" style="shape=partialRectangle;html=1;whiteSpace=wrap;connectable=0;strokeColor=inherit;overflow=hidden;fillColor=none;top=0;left=0;bottom=0;right=0;pointerEvents=1;align=left;" parent="lrAjuptVuyixeFRpdPks-42" vertex="1">
          <mxGeometry width="190" height="30" as="geometry">
            <mxRectangle width="190" height="30" as="alternateBounds" />
          </mxGeometry>
        </mxCell>
        <mxCell id="lrAjuptVuyixeFRpdPks-44" value="" style="shape=tableRow;horizontal=0;startSize=0;swimlaneHead=0;swimlaneBody=0;strokeColor=inherit;top=0;left=0;bottom=0;right=0;collapsible=0;dropTarget=0;fillColor=none;points=[[0,0.5],[1,0.5]];portConstraint=eastwest;" parent="lrAjuptVuyixeFRpdPks-31" vertex="1">
          <mxGeometry y="179" width="190" height="30" as="geometry" />
        </mxCell>
        <mxCell id="lrAjuptVuyixeFRpdPks-45" value="Role (Enum)" style="shape=partialRectangle;html=1;whiteSpace=wrap;connectable=0;strokeColor=inherit;overflow=hidden;fillColor=none;top=0;left=0;bottom=0;right=0;pointerEvents=1;align=left;" parent="lrAjuptVuyixeFRpdPks-44" vertex="1">
          <mxGeometry width="190" height="30" as="geometry">
            <mxRectangle width="190" height="30" as="alternateBounds" />
          </mxGeometry>
        </mxCell>
        <mxCell id="lrAjuptVuyixeFRpdPks-46" value="" style="shape=table;startSize=0;container=1;collapsible=0;childLayout=tableLayout;" parent="1" vertex="1">
          <mxGeometry x="30" y="400" width="150" height="170" as="geometry" />
        </mxCell>
        <mxCell id="lrAjuptVuyixeFRpdPks-47" value="" style="shape=tableRow;horizontal=0;startSize=0;swimlaneHead=0;swimlaneBody=0;strokeColor=inherit;top=0;left=0;bottom=0;right=0;collapsible=0;dropTarget=0;fillColor=none;points=[[0,0.5],[1,0.5]];portConstraint=eastwest;" parent="lrAjuptVuyixeFRpdPks-46" vertex="1">
          <mxGeometry width="150" height="34" as="geometry" />
        </mxCell>
        <mxCell id="lrAjuptVuyixeFRpdPks-48" value="&lt;code style=&quot;text-align: start;&quot; data-end=&quot;1625&quot; data-start=&quot;1613&quot;&gt;&lt;b style=&quot;color: rgb(153, 0, 0);&quot;&gt;&lt;font style=&quot;font-size: 14px;&quot;&gt;Cart_items&lt;/font&gt;&lt;/b&gt;&lt;/code&gt;" style="shape=partialRectangle;html=1;whiteSpace=wrap;connectable=0;strokeColor=inherit;overflow=hidden;fillColor=#99FFFF;top=0;left=0;bottom=0;right=0;pointerEvents=1;" parent="lrAjuptVuyixeFRpdPks-47" vertex="1">
          <mxGeometry width="150" height="34" as="geometry">
            <mxRectangle width="150" height="34" as="alternateBounds" />
          </mxGeometry>
        </mxCell>
        <mxCell id="lrAjuptVuyixeFRpdPks-49" value="" style="shape=tableRow;horizontal=0;startSize=0;swimlaneHead=0;swimlaneBody=0;strokeColor=inherit;top=0;left=0;bottom=0;right=0;collapsible=0;dropTarget=0;fillColor=none;points=[[0,0.5],[1,0.5]];portConstraint=eastwest;" parent="lrAjuptVuyixeFRpdPks-46" vertex="1">
          <mxGeometry y="34" width="150" height="34" as="geometry" />
        </mxCell>
        <mxCell id="lrAjuptVuyixeFRpdPks-50" value="ID (integer)" style="shape=partialRectangle;html=1;whiteSpace=wrap;connectable=0;strokeColor=inherit;overflow=hidden;fillColor=none;top=0;left=0;bottom=0;right=0;pointerEvents=1;align=left;" parent="lrAjuptVuyixeFRpdPks-49" vertex="1">
          <mxGeometry width="150" height="34" as="geometry">
            <mxRectangle width="150" height="34" as="alternateBounds" />
          </mxGeometry>
        </mxCell>
        <mxCell id="lrAjuptVuyixeFRpdPks-51" value="" style="shape=tableRow;horizontal=0;startSize=0;swimlaneHead=0;swimlaneBody=0;strokeColor=inherit;top=0;left=0;bottom=0;right=0;collapsible=0;dropTarget=0;fillColor=none;points=[[0,0.5],[1,0.5]];portConstraint=eastwest;" parent="lrAjuptVuyixeFRpdPks-46" vertex="1">
          <mxGeometry y="68" width="150" height="34" as="geometry" />
        </mxCell>
        <mxCell id="lrAjuptVuyixeFRpdPks-52" value="User_ID (integer)" style="shape=partialRectangle;html=1;whiteSpace=wrap;connectable=0;strokeColor=inherit;overflow=hidden;fillColor=none;top=0;left=0;bottom=0;right=0;pointerEvents=1;align=left;" parent="lrAjuptVuyixeFRpdPks-51" vertex="1">
          <mxGeometry width="150" height="34" as="geometry">
            <mxRectangle width="150" height="34" as="alternateBounds" />
          </mxGeometry>
        </mxCell>
        <mxCell id="lrAjuptVuyixeFRpdPks-53" value="" style="shape=tableRow;horizontal=0;startSize=0;swimlaneHead=0;swimlaneBody=0;strokeColor=inherit;top=0;left=0;bottom=0;right=0;collapsible=0;dropTarget=0;fillColor=none;points=[[0,0.5],[1,0.5]];portConstraint=eastwest;" parent="lrAjuptVuyixeFRpdPks-46" vertex="1">
          <mxGeometry y="102" width="150" height="34" as="geometry" />
        </mxCell>
        <mxCell id="lrAjuptVuyixeFRpdPks-54" value="Variant_ID (Integer)" style="shape=partialRectangle;html=1;whiteSpace=wrap;connectable=0;strokeColor=inherit;overflow=hidden;fillColor=none;top=0;left=0;bottom=0;right=0;pointerEvents=1;align=left;" parent="lrAjuptVuyixeFRpdPks-53" vertex="1">
          <mxGeometry width="150" height="34" as="geometry">
            <mxRectangle width="150" height="34" as="alternateBounds" />
          </mxGeometry>
        </mxCell>
        <mxCell id="lrAjuptVuyixeFRpdPks-55" value="" style="shape=tableRow;horizontal=0;startSize=0;swimlaneHead=0;swimlaneBody=0;strokeColor=inherit;top=0;left=0;bottom=0;right=0;collapsible=0;dropTarget=0;fillColor=none;points=[[0,0.5],[1,0.5]];portConstraint=eastwest;" parent="lrAjuptVuyixeFRpdPks-46" vertex="1">
          <mxGeometry y="136" width="150" height="34" as="geometry" />
        </mxCell>
        <mxCell id="lrAjuptVuyixeFRpdPks-56" value="Quantity (Integer)" style="shape=partialRectangle;html=1;whiteSpace=wrap;connectable=0;strokeColor=inherit;overflow=hidden;fillColor=none;top=0;left=0;bottom=0;right=0;pointerEvents=1;align=left;" parent="lrAjuptVuyixeFRpdPks-55" vertex="1">
          <mxGeometry width="150" height="34" as="geometry">
            <mxRectangle width="150" height="34" as="alternateBounds" />
          </mxGeometry>
        </mxCell>
        <mxCell id="lrAjuptVuyixeFRpdPks-57" value="" style="shape=table;startSize=0;container=1;collapsible=0;childLayout=tableLayout;" parent="1" vertex="1">
          <mxGeometry x="120" y="710" width="180" height="190" as="geometry" />
        </mxCell>
        <mxCell id="lrAjuptVuyixeFRpdPks-58" value="" style="shape=tableRow;horizontal=0;startSize=0;swimlaneHead=0;swimlaneBody=0;strokeColor=inherit;top=0;left=0;bottom=0;right=0;collapsible=0;dropTarget=0;fillColor=none;points=[[0,0.5],[1,0.5]];portConstraint=eastwest;" parent="lrAjuptVuyixeFRpdPks-57" vertex="1">
          <mxGeometry width="180" height="32" as="geometry" />
        </mxCell>
        <mxCell id="lrAjuptVuyixeFRpdPks-59" value="&lt;code style=&quot;text-align: start; color: rgb(153, 0, 0);&quot; data-end=&quot;349&quot; data-start=&quot;336&quot;&gt;&lt;b&gt;&lt;font style=&quot;font-size: 14px;&quot;&gt;Order_items&lt;/font&gt;&lt;/b&gt;&lt;/code&gt;" style="shape=partialRectangle;html=1;whiteSpace=wrap;connectable=0;strokeColor=inherit;overflow=hidden;fillColor=#99FFFF;top=0;left=0;bottom=0;right=0;pointerEvents=1;" parent="lrAjuptVuyixeFRpdPks-58" vertex="1">
          <mxGeometry width="180" height="32" as="geometry">
            <mxRectangle width="180" height="32" as="alternateBounds" />
          </mxGeometry>
        </mxCell>
        <mxCell id="lrAjuptVuyixeFRpdPks-60" value="" style="shape=tableRow;horizontal=0;startSize=0;swimlaneHead=0;swimlaneBody=0;strokeColor=inherit;top=0;left=0;bottom=0;right=0;collapsible=0;dropTarget=0;fillColor=none;points=[[0,0.5],[1,0.5]];portConstraint=eastwest;" parent="lrAjuptVuyixeFRpdPks-57" vertex="1">
          <mxGeometry y="32" width="180" height="31" as="geometry" />
        </mxCell>
        <mxCell id="lrAjuptVuyixeFRpdPks-61" value="&lt;span style=&quot;&quot;&gt;ID (Integer)&lt;/span&gt;" style="shape=partialRectangle;html=1;whiteSpace=wrap;connectable=0;strokeColor=inherit;overflow=hidden;fillColor=none;top=0;left=0;bottom=0;right=0;pointerEvents=1;align=left;" parent="lrAjuptVuyixeFRpdPks-60" vertex="1">
          <mxGeometry width="180" height="31" as="geometry">
            <mxRectangle width="180" height="31" as="alternateBounds" />
          </mxGeometry>
        </mxCell>
        <mxCell id="lrAjuptVuyixeFRpdPks-62" value="" style="shape=tableRow;horizontal=0;startSize=0;swimlaneHead=0;swimlaneBody=0;strokeColor=inherit;top=0;left=0;bottom=0;right=0;collapsible=0;dropTarget=0;fillColor=none;points=[[0,0.5],[1,0.5]];portConstraint=eastwest;" parent="lrAjuptVuyixeFRpdPks-57" vertex="1">
          <mxGeometry y="63" width="180" height="32" as="geometry" />
        </mxCell>
        <mxCell id="lrAjuptVuyixeFRpdPks-63" value="Order_&lt;span style=&quot;&quot;&gt;ID (Integer)&lt;/span&gt;" style="shape=partialRectangle;html=1;whiteSpace=wrap;connectable=0;strokeColor=inherit;overflow=hidden;fillColor=none;top=0;left=0;bottom=0;right=0;pointerEvents=1;align=left;" parent="lrAjuptVuyixeFRpdPks-62" vertex="1">
          <mxGeometry width="180" height="32" as="geometry">
            <mxRectangle width="180" height="32" as="alternateBounds" />
          </mxGeometry>
        </mxCell>
        <mxCell id="lrAjuptVuyixeFRpdPks-64" value="" style="shape=tableRow;horizontal=0;startSize=0;swimlaneHead=0;swimlaneBody=0;strokeColor=inherit;top=0;left=0;bottom=0;right=0;collapsible=0;dropTarget=0;fillColor=none;points=[[0,0.5],[1,0.5]];portConstraint=eastwest;" parent="lrAjuptVuyixeFRpdPks-57" vertex="1">
          <mxGeometry y="95" width="180" height="32" as="geometry" />
        </mxCell>
        <mxCell id="lrAjuptVuyixeFRpdPks-65" value="Variant_&lt;span style=&quot;&quot;&gt;ID (Integer)&lt;/span&gt;" style="shape=partialRectangle;html=1;whiteSpace=wrap;connectable=0;strokeColor=inherit;overflow=hidden;fillColor=none;top=0;left=0;bottom=0;right=0;pointerEvents=1;align=left;" parent="lrAjuptVuyixeFRpdPks-64" vertex="1">
          <mxGeometry width="180" height="32" as="geometry">
            <mxRectangle width="180" height="32" as="alternateBounds" />
          </mxGeometry>
        </mxCell>
        <mxCell id="lrAjuptVuyixeFRpdPks-66" value="" style="shape=tableRow;horizontal=0;startSize=0;swimlaneHead=0;swimlaneBody=0;strokeColor=inherit;top=0;left=0;bottom=0;right=0;collapsible=0;dropTarget=0;fillColor=none;points=[[0,0.5],[1,0.5]];portConstraint=eastwest;" parent="lrAjuptVuyixeFRpdPks-57" vertex="1">
          <mxGeometry y="127" width="180" height="31" as="geometry" />
        </mxCell>
        <mxCell id="lrAjuptVuyixeFRpdPks-67" value="Quantity (Integer)" style="shape=partialRectangle;html=1;whiteSpace=wrap;connectable=0;strokeColor=inherit;overflow=hidden;fillColor=none;top=0;left=0;bottom=0;right=0;pointerEvents=1;align=left;" parent="lrAjuptVuyixeFRpdPks-66" vertex="1">
          <mxGeometry width="180" height="31" as="geometry">
            <mxRectangle width="180" height="31" as="alternateBounds" />
          </mxGeometry>
        </mxCell>
        <mxCell id="lrAjuptVuyixeFRpdPks-68" value="" style="shape=tableRow;horizontal=0;startSize=0;swimlaneHead=0;swimlaneBody=0;strokeColor=inherit;top=0;left=0;bottom=0;right=0;collapsible=0;dropTarget=0;fillColor=none;points=[[0,0.5],[1,0.5]];portConstraint=eastwest;" parent="lrAjuptVuyixeFRpdPks-57" vertex="1">
          <mxGeometry y="158" width="180" height="32" as="geometry" />
        </mxCell>
        <mxCell id="lrAjuptVuyixeFRpdPks-69" value="Unit_price (Decimal)" style="shape=partialRectangle;html=1;whiteSpace=wrap;connectable=0;strokeColor=inherit;overflow=hidden;fillColor=none;top=0;left=0;bottom=0;right=0;pointerEvents=1;align=left;" parent="lrAjuptVuyixeFRpdPks-68" vertex="1">
          <mxGeometry width="180" height="32" as="geometry">
            <mxRectangle width="180" height="32" as="alternateBounds" />
          </mxGeometry>
        </mxCell>
        <mxCell id="lrAjuptVuyixeFRpdPks-70" value="" style="shape=table;startSize=0;container=1;collapsible=0;childLayout=tableLayout;" parent="1" vertex="1">
          <mxGeometry x="730" y="390" width="190" height="231" as="geometry" />
        </mxCell>
        <mxCell id="lrAjuptVuyixeFRpdPks-71" value="" style="shape=tableRow;horizontal=0;startSize=0;swimlaneHead=0;swimlaneBody=0;strokeColor=inherit;top=0;left=0;bottom=0;right=0;collapsible=0;dropTarget=0;fillColor=none;points=[[0,0.5],[1,0.5]];portConstraint=eastwest;" parent="lrAjuptVuyixeFRpdPks-70" vertex="1">
          <mxGeometry width="190" height="29" as="geometry" />
        </mxCell>
        <mxCell id="lrAjuptVuyixeFRpdPks-72" value="&lt;b style=&quot;color: rgb(153, 0, 0);&quot;&gt;&lt;font style=&quot;font-size: 14px;&quot;&gt;Orders&lt;/font&gt;&lt;/b&gt;" style="shape=partialRectangle;html=1;whiteSpace=wrap;connectable=0;strokeColor=inherit;overflow=hidden;fillColor=#99FFFF;top=0;left=0;bottom=0;right=0;pointerEvents=1;" parent="lrAjuptVuyixeFRpdPks-71" vertex="1">
          <mxGeometry width="190" height="29" as="geometry">
            <mxRectangle width="190" height="29" as="alternateBounds" />
          </mxGeometry>
        </mxCell>
        <mxCell id="lrAjuptVuyixeFRpdPks-73" value="" style="shape=tableRow;horizontal=0;startSize=0;swimlaneHead=0;swimlaneBody=0;strokeColor=inherit;top=0;left=0;bottom=0;right=0;collapsible=0;dropTarget=0;fillColor=none;points=[[0,0.5],[1,0.5]];portConstraint=eastwest;" parent="lrAjuptVuyixeFRpdPks-70" vertex="1">
          <mxGeometry y="29" width="190" height="29" as="geometry" />
        </mxCell>
        <mxCell id="lrAjuptVuyixeFRpdPks-74" value="ID (Integer)" style="shape=partialRectangle;html=1;whiteSpace=wrap;connectable=0;strokeColor=inherit;overflow=hidden;fillColor=none;top=0;left=0;bottom=0;right=0;pointerEvents=1;align=left;" parent="lrAjuptVuyixeFRpdPks-73" vertex="1">
          <mxGeometry width="190" height="29" as="geometry">
            <mxRectangle width="190" height="29" as="alternateBounds" />
          </mxGeometry>
        </mxCell>
        <mxCell id="lrAjuptVuyixeFRpdPks-75" value="" style="shape=tableRow;horizontal=0;startSize=0;swimlaneHead=0;swimlaneBody=0;strokeColor=inherit;top=0;left=0;bottom=0;right=0;collapsible=0;dropTarget=0;fillColor=none;points=[[0,0.5],[1,0.5]];portConstraint=eastwest;" parent="lrAjuptVuyixeFRpdPks-70" vertex="1">
          <mxGeometry y="58" width="190" height="29" as="geometry" />
        </mxCell>
        <mxCell id="lrAjuptVuyixeFRpdPks-76" value="User_ID (Integer)" style="shape=partialRectangle;html=1;whiteSpace=wrap;connectable=0;strokeColor=inherit;overflow=hidden;fillColor=none;top=0;left=0;bottom=0;right=0;pointerEvents=1;align=left;" parent="lrAjuptVuyixeFRpdPks-75" vertex="1">
          <mxGeometry width="190" height="29" as="geometry">
            <mxRectangle width="190" height="29" as="alternateBounds" />
          </mxGeometry>
        </mxCell>
        <mxCell id="lrAjuptVuyixeFRpdPks-77" value="" style="shape=tableRow;horizontal=0;startSize=0;swimlaneHead=0;swimlaneBody=0;strokeColor=inherit;top=0;left=0;bottom=0;right=0;collapsible=0;dropTarget=0;fillColor=none;points=[[0,0.5],[1,0.5]];portConstraint=eastwest;" parent="lrAjuptVuyixeFRpdPks-70" vertex="1">
          <mxGeometry y="87" width="190" height="28" as="geometry" />
        </mxCell>
        <mxCell id="lrAjuptVuyixeFRpdPks-78" value="Status (Enum)" style="shape=partialRectangle;html=1;whiteSpace=wrap;connectable=0;strokeColor=inherit;overflow=hidden;fillColor=none;top=0;left=0;bottom=0;right=0;pointerEvents=1;align=left;" parent="lrAjuptVuyixeFRpdPks-77" vertex="1">
          <mxGeometry width="190" height="28" as="geometry">
            <mxRectangle width="190" height="28" as="alternateBounds" />
          </mxGeometry>
        </mxCell>
        <mxCell id="lrAjuptVuyixeFRpdPks-79" value="" style="shape=tableRow;horizontal=0;startSize=0;swimlaneHead=0;swimlaneBody=0;strokeColor=inherit;top=0;left=0;bottom=0;right=0;collapsible=0;dropTarget=0;fillColor=none;points=[[0,0.5],[1,0.5]];portConstraint=eastwest;" parent="lrAjuptVuyixeFRpdPks-70" vertex="1">
          <mxGeometry y="115" width="190" height="30" as="geometry" />
        </mxCell>
        <mxCell id="lrAjuptVuyixeFRpdPks-80" value="Total_price&amp;nbsp;(Decimal)" style="shape=partialRectangle;html=1;whiteSpace=wrap;connectable=0;strokeColor=inherit;overflow=hidden;fillColor=none;top=0;left=0;bottom=0;right=0;pointerEvents=1;align=left;" parent="lrAjuptVuyixeFRpdPks-79" vertex="1">
          <mxGeometry width="190" height="30" as="geometry">
            <mxRectangle width="190" height="30" as="alternateBounds" />
          </mxGeometry>
        </mxCell>
        <mxCell id="lrAjuptVuyixeFRpdPks-81" value="" style="shape=tableRow;horizontal=0;startSize=0;swimlaneHead=0;swimlaneBody=0;strokeColor=inherit;top=0;left=0;bottom=0;right=0;collapsible=0;dropTarget=0;fillColor=none;points=[[0,0.5],[1,0.5]];portConstraint=eastwest;" parent="lrAjuptVuyixeFRpdPks-70" vertex="1">
          <mxGeometry y="145" width="190" height="28" as="geometry" />
        </mxCell>
        <mxCell id="lrAjuptVuyixeFRpdPks-82" value="Shipping_address_ID (Integer)" style="shape=partialRectangle;html=1;whiteSpace=wrap;connectable=0;strokeColor=inherit;overflow=hidden;fillColor=none;top=0;left=0;bottom=0;right=0;pointerEvents=1;align=left;" parent="lrAjuptVuyixeFRpdPks-81" vertex="1">
          <mxGeometry width="190" height="28" as="geometry">
            <mxRectangle width="190" height="28" as="alternateBounds" />
          </mxGeometry>
        </mxCell>
        <mxCell id="lrAjuptVuyixeFRpdPks-83" value="" style="shape=tableRow;horizontal=0;startSize=0;swimlaneHead=0;swimlaneBody=0;strokeColor=inherit;top=0;left=0;bottom=0;right=0;collapsible=0;dropTarget=0;fillColor=none;points=[[0,0.5],[1,0.5]];portConstraint=eastwest;" parent="lrAjuptVuyixeFRpdPks-70" vertex="1">
          <mxGeometry y="173" width="190" height="29" as="geometry" />
        </mxCell>
        <mxCell id="lrAjuptVuyixeFRpdPks-84" value="Billing_address_ID (Integer)" style="shape=partialRectangle;html=1;whiteSpace=wrap;connectable=0;strokeColor=inherit;overflow=hidden;fillColor=none;top=0;left=0;bottom=0;right=0;pointerEvents=1;align=left;" parent="lrAjuptVuyixeFRpdPks-83" vertex="1">
          <mxGeometry width="190" height="29" as="geometry">
            <mxRectangle width="190" height="29" as="alternateBounds" />
          </mxGeometry>
        </mxCell>
        <mxCell id="lrAjuptVuyixeFRpdPks-85" value="" style="shape=tableRow;horizontal=0;startSize=0;swimlaneHead=0;swimlaneBody=0;strokeColor=inherit;top=0;left=0;bottom=0;right=0;collapsible=0;dropTarget=0;fillColor=none;points=[[0,0.5],[1,0.5]];portConstraint=eastwest;" parent="lrAjuptVuyixeFRpdPks-70" vertex="1">
          <mxGeometry y="202" width="190" height="29" as="geometry" />
        </mxCell>
        <mxCell id="lrAjuptVuyixeFRpdPks-86" value="Placed_at&amp;nbsp;(Datetime)" style="shape=partialRectangle;html=1;whiteSpace=wrap;connectable=0;strokeColor=inherit;overflow=hidden;fillColor=none;top=0;left=0;bottom=0;right=0;pointerEvents=1;align=left;" parent="lrAjuptVuyixeFRpdPks-85" vertex="1">
          <mxGeometry width="190" height="29" as="geometry">
            <mxRectangle width="190" height="29" as="alternateBounds" />
          </mxGeometry>
        </mxCell>
        <mxCell id="lrAjuptVuyixeFRpdPks-89" value="" style="shape=table;startSize=0;container=1;collapsible=0;childLayout=tableLayout;" parent="1" vertex="1">
          <mxGeometry x="800" y="70" width="120" height="246" as="geometry" />
        </mxCell>
        <mxCell id="lrAjuptVuyixeFRpdPks-90" value="" style="shape=tableRow;horizontal=0;startSize=0;swimlaneHead=0;swimlaneBody=0;strokeColor=inherit;top=0;left=0;bottom=0;right=0;collapsible=0;dropTarget=0;fillColor=none;points=[[0,0.5],[1,0.5]];portConstraint=eastwest;" parent="lrAjuptVuyixeFRpdPks-89" vertex="1">
          <mxGeometry width="120" height="29" as="geometry" />
        </mxCell>
        <mxCell id="lrAjuptVuyixeFRpdPks-91" value="&lt;span style=&quot;text-align: start; color: rgb(153, 0, 0);&quot; data-end=&quot;2275&quot; data-start=&quot;2249&quot;&gt;&lt;b&gt;&lt;font style=&quot;font-size: 14px;&quot;&gt;Adresses&lt;/font&gt;&lt;/b&gt;&lt;/span&gt;" style="shape=partialRectangle;html=1;whiteSpace=wrap;connectable=0;strokeColor=inherit;overflow=hidden;fillColor=#99FFFF;top=0;left=0;bottom=0;right=0;pointerEvents=1;" parent="lrAjuptVuyixeFRpdPks-90" vertex="1">
          <mxGeometry width="120" height="29" as="geometry">
            <mxRectangle width="120" height="29" as="alternateBounds" />
          </mxGeometry>
        </mxCell>
        <mxCell id="lrAjuptVuyixeFRpdPks-92" value="" style="shape=tableRow;horizontal=0;startSize=0;swimlaneHead=0;swimlaneBody=0;strokeColor=inherit;top=0;left=0;bottom=0;right=0;collapsible=0;dropTarget=0;fillColor=none;points=[[0,0.5],[1,0.5]];portConstraint=eastwest;" parent="lrAjuptVuyixeFRpdPks-89" vertex="1">
          <mxGeometry y="29" width="120" height="29" as="geometry" />
        </mxCell>
        <mxCell id="lrAjuptVuyixeFRpdPks-93" value="ID (Integer)" style="shape=partialRectangle;html=1;whiteSpace=wrap;connectable=0;strokeColor=inherit;overflow=hidden;fillColor=none;top=0;left=0;bottom=0;right=0;pointerEvents=1;align=left;" parent="lrAjuptVuyixeFRpdPks-92" vertex="1">
          <mxGeometry width="120" height="29" as="geometry">
            <mxRectangle width="120" height="29" as="alternateBounds" />
          </mxGeometry>
        </mxCell>
        <mxCell id="lrAjuptVuyixeFRpdPks-94" value="" style="shape=tableRow;horizontal=0;startSize=0;swimlaneHead=0;swimlaneBody=0;strokeColor=inherit;top=0;left=0;bottom=0;right=0;collapsible=0;dropTarget=0;fillColor=none;points=[[0,0.5],[1,0.5]];portConstraint=eastwest;" parent="lrAjuptVuyixeFRpdPks-89" vertex="1">
          <mxGeometry y="58" width="120" height="29" as="geometry" />
        </mxCell>
        <mxCell id="lrAjuptVuyixeFRpdPks-95" value="User_ID (integer)" style="shape=partialRectangle;html=1;whiteSpace=wrap;connectable=0;strokeColor=inherit;overflow=hidden;fillColor=none;top=0;left=0;bottom=0;right=0;pointerEvents=1;align=left;" parent="lrAjuptVuyixeFRpdPks-94" vertex="1">
          <mxGeometry width="120" height="29" as="geometry">
            <mxRectangle width="120" height="29" as="alternateBounds" />
          </mxGeometry>
        </mxCell>
        <mxCell id="lrAjuptVuyixeFRpdPks-96" value="" style="shape=tableRow;horizontal=0;startSize=0;swimlaneHead=0;swimlaneBody=0;strokeColor=inherit;top=0;left=0;bottom=0;right=0;collapsible=0;dropTarget=0;fillColor=none;points=[[0,0.5],[1,0.5]];portConstraint=eastwest;" parent="lrAjuptVuyixeFRpdPks-89" vertex="1">
          <mxGeometry y="87" width="120" height="23" as="geometry" />
        </mxCell>
        <mxCell id="lrAjuptVuyixeFRpdPks-97" value="Street (String)" style="shape=partialRectangle;html=1;whiteSpace=wrap;connectable=0;strokeColor=inherit;overflow=hidden;fillColor=none;top=0;left=0;bottom=0;right=0;pointerEvents=1;align=left;" parent="lrAjuptVuyixeFRpdPks-96" vertex="1">
          <mxGeometry width="120" height="23" as="geometry">
            <mxRectangle width="120" height="23" as="alternateBounds" />
          </mxGeometry>
        </mxCell>
        <mxCell id="lrAjuptVuyixeFRpdPks-98" value="" style="shape=tableRow;horizontal=0;startSize=0;swimlaneHead=0;swimlaneBody=0;strokeColor=inherit;top=0;left=0;bottom=0;right=0;collapsible=0;dropTarget=0;fillColor=none;points=[[0,0.5],[1,0.5]];portConstraint=eastwest;" parent="lrAjuptVuyixeFRpdPks-89" vertex="1">
          <mxGeometry y="110" width="120" height="30" as="geometry" />
        </mxCell>
        <mxCell id="lrAjuptVuyixeFRpdPks-99" value="City (string)" style="shape=partialRectangle;html=1;whiteSpace=wrap;connectable=0;strokeColor=inherit;overflow=hidden;fillColor=none;top=0;left=0;bottom=0;right=0;pointerEvents=1;align=left;" parent="lrAjuptVuyixeFRpdPks-98" vertex="1">
          <mxGeometry width="120" height="30" as="geometry">
            <mxRectangle width="120" height="30" as="alternateBounds" />
          </mxGeometry>
        </mxCell>
        <mxCell id="lrAjuptVuyixeFRpdPks-100" value="" style="shape=tableRow;horizontal=0;startSize=0;swimlaneHead=0;swimlaneBody=0;strokeColor=inherit;top=0;left=0;bottom=0;right=0;collapsible=0;dropTarget=0;fillColor=none;points=[[0,0.5],[1,0.5]];portConstraint=eastwest;" parent="lrAjuptVuyixeFRpdPks-89" vertex="1">
          <mxGeometry y="140" width="120" height="28" as="geometry" />
        </mxCell>
        <mxCell id="lrAjuptVuyixeFRpdPks-101" value="Zip_code (String)" style="shape=partialRectangle;html=1;whiteSpace=wrap;connectable=0;strokeColor=inherit;overflow=hidden;fillColor=none;top=0;left=0;bottom=0;right=0;pointerEvents=1;align=left;" parent="lrAjuptVuyixeFRpdPks-100" vertex="1">
          <mxGeometry width="120" height="28" as="geometry">
            <mxRectangle width="120" height="28" as="alternateBounds" />
          </mxGeometry>
        </mxCell>
        <mxCell id="lrAjuptVuyixeFRpdPks-102" value="" style="shape=tableRow;horizontal=0;startSize=0;swimlaneHead=0;swimlaneBody=0;strokeColor=inherit;top=0;left=0;bottom=0;right=0;collapsible=0;dropTarget=0;fillColor=none;points=[[0,0.5],[1,0.5]];portConstraint=eastwest;" parent="lrAjuptVuyixeFRpdPks-89" vertex="1">
          <mxGeometry y="168" width="120" height="29" as="geometry" />
        </mxCell>
        <mxCell id="lrAjuptVuyixeFRpdPks-103" value="Country (String)" style="shape=partialRectangle;html=1;whiteSpace=wrap;connectable=0;strokeColor=inherit;overflow=hidden;fillColor=none;top=0;left=0;bottom=0;right=0;pointerEvents=1;align=left;" parent="lrAjuptVuyixeFRpdPks-102" vertex="1">
          <mxGeometry width="120" height="29" as="geometry">
            <mxRectangle width="120" height="29" as="alternateBounds" />
          </mxGeometry>
        </mxCell>
        <mxCell id="lrAjuptVuyixeFRpdPks-104" value="" style="shape=tableRow;horizontal=0;startSize=0;swimlaneHead=0;swimlaneBody=0;strokeColor=inherit;top=0;left=0;bottom=0;right=0;collapsible=0;dropTarget=0;fillColor=none;points=[[0,0.5],[1,0.5]];portConstraint=eastwest;" parent="lrAjuptVuyixeFRpdPks-89" vertex="1">
          <mxGeometry y="197" width="120" height="29" as="geometry" />
        </mxCell>
        <mxCell id="lrAjuptVuyixeFRpdPks-105" value="Phone (String)" style="shape=partialRectangle;html=1;whiteSpace=wrap;connectable=0;strokeColor=inherit;overflow=hidden;fillColor=none;top=0;left=0;bottom=0;right=0;pointerEvents=1;align=left;" parent="lrAjuptVuyixeFRpdPks-104" vertex="1">
          <mxGeometry width="120" height="29" as="geometry">
            <mxRectangle width="120" height="29" as="alternateBounds" />
          </mxGeometry>
        </mxCell>
        <mxCell id="lrAjuptVuyixeFRpdPks-106" value="" style="shape=tableRow;horizontal=0;startSize=0;swimlaneHead=0;swimlaneBody=0;strokeColor=inherit;top=0;left=0;bottom=0;right=0;collapsible=0;dropTarget=0;fillColor=none;points=[[0,0.5],[1,0.5]];portConstraint=eastwest;" parent="lrAjuptVuyixeFRpdPks-89" vertex="1">
          <mxGeometry y="226" width="120" height="20" as="geometry" />
        </mxCell>
        <mxCell id="lrAjuptVuyixeFRpdPks-107" value="&lt;span style=&quot;caret-color: rgb(0, 0, 0); color: rgb(0, 0, 0); font-family: Helvetica; font-size: 12px; font-style: normal; font-variant-caps: normal; font-weight: 400; letter-spacing: normal; text-indent: 0px; text-transform: none; white-space: normal; word-spacing: 0px; -webkit-text-stroke-width: 0px; background-color: rgb(236, 236, 236); text-decoration: none; float: none; display: inline !important;&quot;&gt;Type (Enum)&lt;/span&gt;" style="shape=partialRectangle;html=1;whiteSpace=wrap;connectable=0;strokeColor=inherit;overflow=hidden;fillColor=none;top=0;left=0;bottom=0;right=0;pointerEvents=1;align=left;" parent="lrAjuptVuyixeFRpdPks-106" vertex="1">
          <mxGeometry width="120" height="20" as="geometry">
            <mxRectangle width="120" height="20" as="alternateBounds" />
          </mxGeometry>
        </mxCell>
        <mxCell id="lrAjuptVuyixeFRpdPks-108" value="" style="shape=table;startSize=0;container=1;collapsible=0;childLayout=tableLayout;" parent="1" vertex="1">
          <mxGeometry x="380" y="710" width="170" height="240" as="geometry" />
        </mxCell>
        <mxCell id="lrAjuptVuyixeFRpdPks-109" value="" style="shape=tableRow;horizontal=0;startSize=0;swimlaneHead=0;swimlaneBody=0;strokeColor=inherit;top=0;left=0;bottom=0;right=0;collapsible=0;dropTarget=0;fillColor=none;points=[[0,0.5],[1,0.5]];portConstraint=eastwest;" parent="lrAjuptVuyixeFRpdPks-108" vertex="1">
          <mxGeometry width="170" height="30" as="geometry" />
        </mxCell>
        <mxCell id="lrAjuptVuyixeFRpdPks-110" value="&lt;b style=&quot;color: rgb(153, 0, 0);&quot;&gt;&lt;font style=&quot;font-size: 14px;&quot;&gt;Payments&lt;/font&gt;&lt;/b&gt;" style="shape=partialRectangle;html=1;whiteSpace=wrap;connectable=0;strokeColor=inherit;overflow=hidden;fillColor=#99FFFF;top=0;left=0;bottom=0;right=0;pointerEvents=1;" parent="lrAjuptVuyixeFRpdPks-109" vertex="1">
          <mxGeometry width="170" height="30" as="geometry">
            <mxRectangle width="170" height="30" as="alternateBounds" />
          </mxGeometry>
        </mxCell>
        <mxCell id="lrAjuptVuyixeFRpdPks-111" value="" style="shape=tableRow;horizontal=0;startSize=0;swimlaneHead=0;swimlaneBody=0;strokeColor=inherit;top=0;left=0;bottom=0;right=0;collapsible=0;dropTarget=0;fillColor=none;points=[[0,0.5],[1,0.5]];portConstraint=eastwest;" parent="lrAjuptVuyixeFRpdPks-108" vertex="1">
          <mxGeometry y="30" width="170" height="30" as="geometry" />
        </mxCell>
        <mxCell id="lrAjuptVuyixeFRpdPks-112" value="ID (Integer)" style="shape=partialRectangle;html=1;whiteSpace=wrap;connectable=0;strokeColor=inherit;overflow=hidden;fillColor=none;top=0;left=0;bottom=0;right=0;pointerEvents=1;align=left;" parent="lrAjuptVuyixeFRpdPks-111" vertex="1">
          <mxGeometry width="170" height="30" as="geometry">
            <mxRectangle width="170" height="30" as="alternateBounds" />
          </mxGeometry>
        </mxCell>
        <mxCell id="lrAjuptVuyixeFRpdPks-113" value="" style="shape=tableRow;horizontal=0;startSize=0;swimlaneHead=0;swimlaneBody=0;strokeColor=inherit;top=0;left=0;bottom=0;right=0;collapsible=0;dropTarget=0;fillColor=none;points=[[0,0.5],[1,0.5]];portConstraint=eastwest;" parent="lrAjuptVuyixeFRpdPks-108" vertex="1">
          <mxGeometry y="60" width="170" height="30" as="geometry" />
        </mxCell>
        <mxCell id="lrAjuptVuyixeFRpdPks-114" value="Order_ID (Integer)" style="shape=partialRectangle;html=1;whiteSpace=wrap;connectable=0;strokeColor=inherit;overflow=hidden;fillColor=none;top=0;left=0;bottom=0;right=0;pointerEvents=1;align=left;" parent="lrAjuptVuyixeFRpdPks-113" vertex="1">
          <mxGeometry width="170" height="30" as="geometry">
            <mxRectangle width="170" height="30" as="alternateBounds" />
          </mxGeometry>
        </mxCell>
        <mxCell id="lrAjuptVuyixeFRpdPks-115" value="" style="shape=tableRow;horizontal=0;startSize=0;swimlaneHead=0;swimlaneBody=0;strokeColor=inherit;top=0;left=0;bottom=0;right=0;collapsible=0;dropTarget=0;fillColor=none;points=[[0,0.5],[1,0.5]];portConstraint=eastwest;" parent="lrAjuptVuyixeFRpdPks-108" vertex="1">
          <mxGeometry y="90" width="170" height="30" as="geometry" />
        </mxCell>
        <mxCell id="lrAjuptVuyixeFRpdPks-116" value="Payment_method (String)" style="shape=partialRectangle;html=1;whiteSpace=wrap;connectable=0;strokeColor=inherit;overflow=hidden;fillColor=none;top=0;left=0;bottom=0;right=0;pointerEvents=1;align=left;" parent="lrAjuptVuyixeFRpdPks-115" vertex="1">
          <mxGeometry width="170" height="30" as="geometry">
            <mxRectangle width="170" height="30" as="alternateBounds" />
          </mxGeometry>
        </mxCell>
        <mxCell id="lrAjuptVuyixeFRpdPks-117" value="" style="shape=tableRow;horizontal=0;startSize=0;swimlaneHead=0;swimlaneBody=0;strokeColor=inherit;top=0;left=0;bottom=0;right=0;collapsible=0;dropTarget=0;fillColor=none;points=[[0,0.5],[1,0.5]];portConstraint=eastwest;" parent="lrAjuptVuyixeFRpdPks-108" vertex="1">
          <mxGeometry y="120" width="170" height="30" as="geometry" />
        </mxCell>
        <mxCell id="lrAjuptVuyixeFRpdPks-118" value="Status (Enum)" style="shape=partialRectangle;html=1;whiteSpace=wrap;connectable=0;strokeColor=inherit;overflow=hidden;fillColor=none;top=0;left=0;bottom=0;right=0;pointerEvents=1;align=left;" parent="lrAjuptVuyixeFRpdPks-117" vertex="1">
          <mxGeometry width="170" height="30" as="geometry">
            <mxRectangle width="170" height="30" as="alternateBounds" />
          </mxGeometry>
        </mxCell>
        <mxCell id="lrAjuptVuyixeFRpdPks-119" value="" style="shape=tableRow;horizontal=0;startSize=0;swimlaneHead=0;swimlaneBody=0;strokeColor=inherit;top=0;left=0;bottom=0;right=0;collapsible=0;dropTarget=0;fillColor=none;points=[[0,0.5],[1,0.5]];portConstraint=eastwest;" parent="lrAjuptVuyixeFRpdPks-108" vertex="1">
          <mxGeometry y="150" width="170" height="30" as="geometry" />
        </mxCell>
        <mxCell id="lrAjuptVuyixeFRpdPks-120" value="Transaction_ID (String)" style="shape=partialRectangle;html=1;whiteSpace=wrap;connectable=0;strokeColor=inherit;overflow=hidden;fillColor=none;top=0;left=0;bottom=0;right=0;pointerEvents=1;align=left;" parent="lrAjuptVuyixeFRpdPks-119" vertex="1">
          <mxGeometry width="170" height="30" as="geometry">
            <mxRectangle width="170" height="30" as="alternateBounds" />
          </mxGeometry>
        </mxCell>
        <mxCell id="lrAjuptVuyixeFRpdPks-121" value="" style="shape=tableRow;horizontal=0;startSize=0;swimlaneHead=0;swimlaneBody=0;strokeColor=inherit;top=0;left=0;bottom=0;right=0;collapsible=0;dropTarget=0;fillColor=none;points=[[0,0.5],[1,0.5]];portConstraint=eastwest;" parent="lrAjuptVuyixeFRpdPks-108" vertex="1">
          <mxGeometry y="180" width="170" height="30" as="geometry" />
        </mxCell>
        <mxCell id="lrAjuptVuyixeFRpdPks-122" value="Amount (Decimal)" style="shape=partialRectangle;html=1;whiteSpace=wrap;connectable=0;strokeColor=inherit;overflow=hidden;fillColor=none;top=0;left=0;bottom=0;right=0;pointerEvents=1;align=left;" parent="lrAjuptVuyixeFRpdPks-121" vertex="1">
          <mxGeometry width="170" height="30" as="geometry">
            <mxRectangle width="170" height="30" as="alternateBounds" />
          </mxGeometry>
        </mxCell>
        <mxCell id="lrAjuptVuyixeFRpdPks-123" value="" style="shape=tableRow;horizontal=0;startSize=0;swimlaneHead=0;swimlaneBody=0;strokeColor=inherit;top=0;left=0;bottom=0;right=0;collapsible=0;dropTarget=0;fillColor=none;points=[[0,0.5],[1,0.5]];portConstraint=eastwest;" parent="lrAjuptVuyixeFRpdPks-108" vertex="1">
          <mxGeometry y="210" width="170" height="30" as="geometry" />
        </mxCell>
        <mxCell id="lrAjuptVuyixeFRpdPks-124" value="Paid_at (Datetime)" style="shape=partialRectangle;html=1;whiteSpace=wrap;connectable=0;strokeColor=inherit;overflow=hidden;fillColor=none;top=0;left=0;bottom=0;right=0;pointerEvents=1;align=left;" parent="lrAjuptVuyixeFRpdPks-123" vertex="1">
          <mxGeometry width="170" height="30" as="geometry">
            <mxRectangle width="170" height="30" as="alternateBounds" />
          </mxGeometry>
        </mxCell>
        <mxCell id="lrAjuptVuyixeFRpdPks-125" value="" style="shape=table;startSize=0;container=1;collapsible=0;childLayout=tableLayout;" parent="1" vertex="1">
          <mxGeometry x="740" y="710" width="170" height="180" as="geometry" />
        </mxCell>
        <mxCell id="lrAjuptVuyixeFRpdPks-126" value="" style="shape=tableRow;horizontal=0;startSize=0;swimlaneHead=0;swimlaneBody=0;strokeColor=inherit;top=0;left=0;bottom=0;right=0;collapsible=0;dropTarget=0;fillColor=#99FFFF;points=[[0,0.5],[1,0.5]];portConstraint=eastwest;" parent="lrAjuptVuyixeFRpdPks-125" vertex="1">
          <mxGeometry width="170" height="30" as="geometry" />
        </mxCell>
        <mxCell id="lrAjuptVuyixeFRpdPks-127" value="&lt;b&gt;&lt;font style=&quot;font-size: 14px; color: rgb(153, 0, 0);&quot;&gt;Reviews&lt;/font&gt;&lt;/b&gt;" style="shape=partialRectangle;html=1;whiteSpace=wrap;connectable=0;strokeColor=inherit;overflow=hidden;fillColor=none;top=0;left=0;bottom=0;right=0;pointerEvents=1;" parent="lrAjuptVuyixeFRpdPks-126" vertex="1">
          <mxGeometry width="170" height="30" as="geometry">
            <mxRectangle width="170" height="30" as="alternateBounds" />
          </mxGeometry>
        </mxCell>
        <mxCell id="lrAjuptVuyixeFRpdPks-128" value="" style="shape=tableRow;horizontal=0;startSize=0;swimlaneHead=0;swimlaneBody=0;strokeColor=inherit;top=0;left=0;bottom=0;right=0;collapsible=0;dropTarget=0;fillColor=none;points=[[0,0.5],[1,0.5]];portConstraint=eastwest;" parent="lrAjuptVuyixeFRpdPks-125" vertex="1">
          <mxGeometry y="30" width="170" height="30" as="geometry" />
        </mxCell>
        <mxCell id="lrAjuptVuyixeFRpdPks-129" value="&lt;span style=&quot;&quot;&gt;ID (Integer)&lt;/span&gt;" style="shape=partialRectangle;html=1;whiteSpace=wrap;connectable=0;strokeColor=inherit;overflow=hidden;fillColor=none;top=0;left=0;bottom=0;right=0;pointerEvents=1;align=left;" parent="lrAjuptVuyixeFRpdPks-128" vertex="1">
          <mxGeometry width="170" height="30" as="geometry">
            <mxRectangle width="170" height="30" as="alternateBounds" />
          </mxGeometry>
        </mxCell>
        <mxCell id="lrAjuptVuyixeFRpdPks-130" value="" style="shape=tableRow;horizontal=0;startSize=0;swimlaneHead=0;swimlaneBody=0;strokeColor=inherit;top=0;left=0;bottom=0;right=0;collapsible=0;dropTarget=0;fillColor=none;points=[[0,0.5],[1,0.5]];portConstraint=eastwest;" parent="lrAjuptVuyixeFRpdPks-125" vertex="1">
          <mxGeometry y="60" width="170" height="30" as="geometry" />
        </mxCell>
        <mxCell id="lrAjuptVuyixeFRpdPks-131" value="&lt;span style=&quot;&quot;&gt;User_ID (Integer)&lt;/span&gt;" style="shape=partialRectangle;html=1;whiteSpace=wrap;connectable=0;strokeColor=inherit;overflow=hidden;fillColor=none;top=0;left=0;bottom=0;right=0;pointerEvents=1;align=left;" parent="lrAjuptVuyixeFRpdPks-130" vertex="1">
          <mxGeometry width="170" height="30" as="geometry">
            <mxRectangle width="170" height="30" as="alternateBounds" />
          </mxGeometry>
        </mxCell>
        <mxCell id="lrAjuptVuyixeFRpdPks-132" value="" style="shape=tableRow;horizontal=0;startSize=0;swimlaneHead=0;swimlaneBody=0;strokeColor=inherit;top=0;left=0;bottom=0;right=0;collapsible=0;dropTarget=0;fillColor=none;points=[[0,0.5],[1,0.5]];portConstraint=eastwest;" parent="lrAjuptVuyixeFRpdPks-125" vertex="1">
          <mxGeometry y="90" width="170" height="30" as="geometry" />
        </mxCell>
        <mxCell id="lrAjuptVuyixeFRpdPks-133" value="&lt;span style=&quot;&quot;&gt;Product_ID (Integer)&lt;/span&gt;" style="shape=partialRectangle;html=1;whiteSpace=wrap;connectable=0;strokeColor=inherit;overflow=hidden;fillColor=none;top=0;left=0;bottom=0;right=0;pointerEvents=1;align=left;" parent="lrAjuptVuyixeFRpdPks-132" vertex="1">
          <mxGeometry width="170" height="30" as="geometry">
            <mxRectangle width="170" height="30" as="alternateBounds" />
          </mxGeometry>
        </mxCell>
        <mxCell id="lrAjuptVuyixeFRpdPks-134" value="" style="shape=tableRow;horizontal=0;startSize=0;swimlaneHead=0;swimlaneBody=0;strokeColor=inherit;top=0;left=0;bottom=0;right=0;collapsible=0;dropTarget=0;fillColor=none;points=[[0,0.5],[1,0.5]];portConstraint=eastwest;" parent="lrAjuptVuyixeFRpdPks-125" vertex="1">
          <mxGeometry y="120" width="170" height="30" as="geometry" />
        </mxCell>
        <mxCell id="lrAjuptVuyixeFRpdPks-135" value="&lt;span style=&quot;&quot;&gt;Rating (Integer)&lt;/span&gt;" style="shape=partialRectangle;html=1;whiteSpace=wrap;connectable=0;strokeColor=inherit;overflow=hidden;fillColor=none;top=0;left=0;bottom=0;right=0;pointerEvents=1;align=left;" parent="lrAjuptVuyixeFRpdPks-134" vertex="1">
          <mxGeometry width="170" height="30" as="geometry">
            <mxRectangle width="170" height="30" as="alternateBounds" />
          </mxGeometry>
        </mxCell>
        <mxCell id="lrAjuptVuyixeFRpdPks-136" value="" style="shape=tableRow;horizontal=0;startSize=0;swimlaneHead=0;swimlaneBody=0;strokeColor=inherit;top=0;left=0;bottom=0;right=0;collapsible=0;dropTarget=0;fillColor=none;points=[[0,0.5],[1,0.5]];portConstraint=eastwest;" parent="lrAjuptVuyixeFRpdPks-125" vertex="1">
          <mxGeometry y="150" width="170" height="30" as="geometry" />
        </mxCell>
        <mxCell id="lrAjuptVuyixeFRpdPks-137" value="Comment (Text)" style="shape=partialRectangle;html=1;whiteSpace=wrap;connectable=0;strokeColor=inherit;overflow=hidden;fillColor=none;top=0;left=0;bottom=0;right=0;pointerEvents=1;align=left;" parent="lrAjuptVuyixeFRpdPks-136" vertex="1">
          <mxGeometry width="170" height="30" as="geometry">
            <mxRectangle width="170" height="30" as="alternateBounds" />
          </mxGeometry>
        </mxCell>
      </root>
    </mxGraphModel>
  </diagram>
</mxfile>
